<svg width="22" height="29" viewBox="0 0 22 29" fill="none" xmlns="http://www.w3.org/2000/svg">
<path d="M11 21.6667C11.7072 21.6667 12.3855 21.3857 12.8856 20.8856C13.3857 20.3855 13.6667 19.7072 13.6667 19C13.6667 18.2928 13.3857 17.6145 12.8856 17.1144C12.3855 16.6143 11.7072 16.3333 11 16.3333C10.2928 16.3333 9.61448 16.6143 9.11439 17.1144C8.61429 17.6145 8.33334 18.2928 8.33334 19C8.33334 19.7072 8.61429 20.3855 9.11439 20.8856C9.61448 21.3857 10.2928 21.6667 11 21.6667ZM19 9.66666C19.7072 9.66666 20.3855 9.94761 20.8856 10.4477C21.3857 10.9478 21.6667 11.6261 21.6667 12.3333V25.6667C21.6667 26.3739 21.3857 27.0522 20.8856 27.5523C20.3855 28.0524 19.7072 28.3333 19 28.3333H3C2.29276 28.3333 1.61448 28.0524 1.11438 27.5523C0.614287 27.0522 0.333336 26.3739 0.333336 25.6667V12.3333C0.333336 11.6261 0.614287 10.9478 1.11438 10.4477C1.61448 9.94761 2.29276 9.66666 3 9.66666H4.33334V7C4.33334 5.23188 5.03572 3.53619 6.28596 2.28595C7.5362 1.03571 9.23189 0.333328 11 0.333328C11.8755 0.333328 12.7424 0.505767 13.5512 0.840798C14.3601 1.17583 15.095 1.66689 15.714 2.28595C16.3331 2.90501 16.8242 3.63993 17.1592 4.44877C17.4942 5.25761 17.6667 6.12452 17.6667 7V9.66666H19ZM11 2.99999C9.93914 2.99999 8.92172 3.42142 8.17158 4.17157C7.42143 4.92171 7 5.93913 7 7V9.66666H15V7C15 5.93913 14.5786 4.92171 13.8284 4.17157C13.0783 3.42142 12.0609 2.99999 11 2.99999Z" fill="#5D49AB"/>
</svg>
