<svg width="22" height="22" viewBox="0 0 22 22" fill="none" xmlns="http://www.w3.org/2000/svg">
<path d="M11 0C9.67391 0 8.40215 0.526784 7.46446 1.46447C6.52678 2.40215 6 3.67392 6 5C6 6.32608 6.52678 7.59785 7.46446 8.53553C8.40215 9.47322 9.67391 10 11 10C12.3261 10 13.5978 9.47322 14.5355 8.53553C15.4732 7.59785 16 6.32608 16 5C16 3.67392 15.4732 2.40215 14.5355 1.46447C13.5978 0.526784 12.3261 0 11 0ZM5.66666 12.6667C4.34058 12.6667 3.06881 13.1935 2.13113 14.1311C1.19345 15.0688 0.666664 16.3406 0.666664 17.6667V19.2507C0.666664 20.256 1.39466 21.112 2.38666 21.2733C8.09066 22.2053 13.9093 22.2053 19.6133 21.2733C20.0934 21.1952 20.5301 20.9488 20.8452 20.5782C21.1603 20.2077 21.3333 19.7371 21.3333 19.2507V17.6667C21.3333 16.3406 20.8065 15.0688 19.8689 14.1311C18.9312 13.1935 17.6594 12.6667 16.3333 12.6667H15.88C15.6333 12.6667 15.388 12.7067 15.1547 12.7813L14 13.1587C12.0506 13.795 9.94939 13.795 8 13.1587L6.84533 12.7813C6.61154 12.7052 6.36719 12.6666 6.12133 12.6667H5.66666Z" fill="#5D49AB"/>
</svg>
